<svg width="66" height="57" viewBox="0 0 66 57" fill="none" xmlns="http://www.w3.org/2000/svg">
<circle cx="1.5" cy="1.5" r="1.5" fill="#5DC4B3"/>
<circle cx="10.5" cy="1.5" r="1.5" fill="#5DC4B3"/>
<circle cx="19.5" cy="1.5" r="1.5" fill="#5DC4B3"/>
<circle cx="28.5" cy="1.5" r="1.5" fill="#5DC4B3"/>
<circle cx="37.5" cy="1.5" r="1.5" fill="#5DC4B3"/>
<circle cx="46.5" cy="1.5" r="1.5" fill="#5DC4B3"/>
<circle cx="55.5" cy="1.5" r="1.5" fill="#5DC4B3"/>
<circle cx="64.5" cy="1.5" r="1.5" fill="#5DC4B3"/>
<circle cx="1.5" cy="10.5" r="1.5" fill="#5DC4B3"/>
<circle cx="10.5" cy="10.5" r="1.5" fill="#5DC4B3"/>
<circle cx="19.5" cy="10.5" r="1.5" fill="#5DC4B3"/>
<circle cx="28.5" cy="10.5" r="1.5" fill="#5DC4B3"/>
<circle cx="37.5" cy="10.5" r="1.5" fill="#5DC4B3"/>
<circle cx="46.5" cy="10.5" r="1.5" fill="#5DC4B3"/>
<circle cx="55.5" cy="10.5" r="1.5" fill="#5DC4B3"/>
<circle cx="64.5" cy="10.5" r="1.5" fill="#5DC4B3"/>
<circle cx="1.5" cy="19.5" r="1.5" fill="#5DC4B3"/>
<circle cx="10.5" cy="19.5" r="1.5" fill="#5DC4B3"/>
<circle cx="19.5" cy="19.5" r="1.5" fill="#5DC4B3"/>
<circle cx="28.5" cy="19.5" r="1.5" fill="#5DC4B3"/>
<circle cx="37.5" cy="19.5" r="1.5" fill="#5DC4B3"/>
<circle cx="46.5" cy="19.5" r="1.5" fill="#5DC4B3"/>
<circle cx="55.5" cy="19.5" r="1.5" fill="#5DC4B3"/>
<circle cx="64.5" cy="19.5" r="1.5" fill="#5DC4B3"/>
<circle cx="1.5" cy="28.5" r="1.5" fill="#5DC4B3"/>
<circle cx="10.5" cy="28.5" r="1.5" fill="#5DC4B3"/>
<circle cx="19.5" cy="28.5" r="1.5" fill="#5DC4B3"/>
<circle cx="28.5" cy="28.5" r="1.5" fill="#5DC4B3"/>
<circle cx="37.5" cy="28.5" r="1.5" fill="#5DC4B3"/>
<circle cx="46.5" cy="28.5" r="1.5" fill="#5DC4B3"/>
<circle cx="55.5" cy="28.5" r="1.5" fill="#5DC4B3"/>
<circle cx="64.5" cy="28.5" r="1.5" fill="#5DC4B3"/>
<circle cx="1.5" cy="37.5" r="1.5" fill="#5DC4B3"/>
<circle cx="10.5" cy="37.5" r="1.5" fill="#5DC4B3"/>
<circle cx="19.5" cy="37.5" r="1.5" fill="#5DC4B3"/>
<circle cx="28.5" cy="37.5" r="1.5" fill="#5DC4B3"/>
<circle cx="37.5" cy="37.5" r="1.5" fill="#5DC4B3"/>
<circle cx="46.5" cy="37.5" r="1.5" fill="#5DC4B3"/>
<circle cx="55.5" cy="37.5" r="1.5" fill="#5DC4B3"/>
<circle cx="64.5" cy="37.5" r="1.5" fill="#5DC4B3"/>
<circle cx="1.5" cy="46.5" r="1.5" fill="#5DC4B3"/>
<circle cx="10.5" cy="46.5" r="1.5" fill="#5DC4B3"/>
<circle cx="19.5" cy="46.5" r="1.5" fill="#5DC4B3"/>
<circle cx="28.5" cy="46.5" r="1.5" fill="#5DC4B3"/>
<circle cx="37.5" cy="46.5" r="1.5" fill="#5DC4B3"/>
<circle cx="46.5" cy="46.5" r="1.5" fill="#5DC4B3"/>
<circle cx="55.5" cy="46.5" r="1.5" fill="#5DC4B3"/>
<circle cx="64.5" cy="46.5" r="1.5" fill="#5DC4B3"/>
<circle cx="1.5" cy="55.5" r="1.5" fill="#5DC4B3"/>
<circle cx="10.5" cy="55.5" r="1.5" fill="#5DC4B3"/>
<circle cx="19.5" cy="55.5" r="1.5" fill="#5DC4B3"/>
<circle cx="28.5" cy="55.5" r="1.5" fill="#5DC4B3"/>
<circle cx="37.5" cy="55.5" r="1.5" fill="#5DC4B3"/>
<circle cx="46.5" cy="55.5" r="1.5" fill="#5DC4B3"/>
<circle cx="55.5" cy="55.5" r="1.5" fill="#5DC4B3"/>
<circle cx="64.5" cy="55.5" r="1.5" fill="#5DC4B3"/>
</svg>
