<svg width="124" height="28" viewBox="0 0 124 28" fill="none" xmlns="http://www.w3.org/2000/svg">
<path d="M27.2281 27.0632C27.5341 26.9938 27.8519 26.855 28.1815 26.6468C28.511 26.4155 28.7464 26.1611 28.8876 25.8835C29.1466 25.444 29.3349 24.8311 29.4526 24.0446C29.5938 23.235 29.6644 22.1363 29.6644 20.7485C29.6644 19.2449 29.6291 18.1 29.5585 17.3135C29.4879 16.5271 29.3819 15.9372 29.2407 15.544C29.0995 15.1508 28.8994 14.8616 28.6405 14.6766C28.4051 14.4684 28.1344 14.3643 27.8284 14.3643C27.5459 14.3643 27.3341 14.3874 27.1928 14.4337L27.0869 14.052L28.0755 13.601C29.1583 13.1152 29.9351 12.7451 30.4059 12.4907C31.1591 12.0512 31.8888 11.658 32.595 11.311C33.3247 10.9409 33.819 10.7559 34.0779 10.7559C34.125 10.7559 34.1721 10.7675 34.2192 10.7906C34.2898 10.8137 34.3368 10.86 34.3604 10.9294C34.431 11.1607 34.4781 11.6002 34.5016 12.2478C34.5252 12.8955 34.5369 13.52 34.5369 14.1214V16.2032C34.8194 15.5556 35.1725 14.8732 35.5962 14.1561C36.0199 13.4159 36.4553 12.7798 36.9026 12.2478C37.2556 11.8315 37.5852 11.5308 37.8912 11.3457C38.2207 11.1375 38.5738 11.0335 38.9504 11.0335C39.4212 11.0335 39.8449 11.2185 40.2215 11.5886C40.6217 11.9587 40.9277 12.4329 41.1395 13.0112C41.3749 13.5663 41.4926 14.1214 41.4926 14.6766C41.4926 15.1855 41.3396 15.5903 41.0336 15.891C40.7276 16.1917 40.3275 16.342 39.8331 16.342C39.3388 16.342 38.715 16.2379 37.9618 16.0297C37.6558 15.9603 37.3263 15.9025 36.9732 15.8563C36.6436 15.7869 36.3494 15.7522 36.0905 15.7522C35.8786 15.7522 35.7256 15.7637 35.6315 15.7869C35.349 16.0182 35.0901 16.4345 34.8547 17.0359C34.6428 17.6373 34.5369 18.3428 34.5369 19.1524V20.1933C34.5369 21.3036 34.5722 22.2635 34.6428 23.0731C34.7135 23.8827 34.8665 24.5651 35.1019 25.1202C35.2902 25.5828 35.6315 25.9992 36.1258 26.3693C36.6201 26.7162 37.2556 26.936 38.0324 27.0285L37.9971 27.4449L35.0665 27.4102C33.6071 27.3639 32.595 27.3408 32.03 27.3408C31.3239 27.3408 30.2882 27.3639 28.9229 27.4102L27.2635 27.4449L27.2281 27.0632Z" fill="white"/>
<path d="M47.3124 19.1177C47.3124 20.4131 47.5243 21.5233 47.9479 22.4486C48.3716 23.3507 48.9601 24.033 49.7134 24.4957C50.4666 24.9583 51.3375 25.1896 52.3262 25.1896C53.2206 25.1896 54.0445 24.9814 54.7977 24.5651C55.5745 24.1487 56.316 23.5589 57.0221 22.7955L57.4105 23.0731C56.5631 24.3453 55.5274 25.444 54.3034 26.3693C53.0794 27.2945 51.6553 27.7571 50.0311 27.7571C48.1009 27.7571 46.4885 27.3176 45.1939 26.4387C44.1347 25.7447 43.3108 24.8195 42.7223 23.6629C42.1574 22.4833 41.8749 21.0723 41.8749 19.43C41.8749 17.9959 42.2163 16.6543 42.8989 15.4052C43.5815 14.1561 44.5348 13.1499 45.7588 12.3866C47.0064 11.6233 48.3952 11.2416 49.9252 11.2416C51.2669 11.2416 52.4203 11.5308 53.3854 12.109C54.374 12.6873 55.1626 13.4506 55.751 14.399C56.3631 15.3242 56.7868 16.3189 57.0221 17.3829C57.0928 17.5911 57.1281 17.7877 57.1281 17.9727C57.1281 18.1115 57.0692 18.2387 56.9515 18.3544L47.3124 18.5626V19.1177ZM49.7134 11.9703C49.0072 12.3404 48.454 13.0227 48.0539 14.0173C47.6537 15.012 47.4183 16.2957 47.3477 17.8686C49.7487 17.7993 51.3493 17.7067 52.1496 17.5911C52.1025 16.1338 51.8554 14.8616 51.4081 13.7745C50.9844 12.6642 50.4195 12.0628 49.7134 11.9703Z" fill="white"/>
<path d="M56.7306 27.0632C57.1778 26.9013 57.5309 26.7162 57.7898 26.5081C58.0723 26.2999 58.2959 26.0107 58.4607 25.6406C58.649 25.2474 58.7784 24.8426 58.8491 24.4263C58.9432 24.0099 59.0138 23.5473 59.0609 23.0384C59.108 21.9744 59.1315 20.9219 59.1315 19.881V14.9195C59.1315 12.9071 59.0962 11.2069 59.0256 9.81908C58.9785 8.36183 58.9079 7.20529 58.8137 6.34944C58.7431 5.4936 58.6137 4.8575 58.4254 4.44114C58.2606 4.16357 58.037 3.94382 57.7545 3.78191C57.472 3.59686 57.1778 3.50434 56.8718 3.50434C56.7306 3.50434 56.5423 3.52747 56.3069 3.57373L56.1656 3.15737L57.2249 2.74102C57.4132 2.67162 57.8722 2.49814 58.6019 2.22057C59.3316 1.91987 59.9436 1.63073 60.4379 1.35316C60.9793 1.02933 61.5678 0.728624 62.2033 0.451054C62.8389 0.150351 63.2743 0 63.5097 0L63.8981 0.242874C64.0158 0.913672 64.0747 1.81578 64.0747 2.94919C64.0747 4.54523 64.0629 6.01404 64.0394 7.35564L64.004 18.9095C64.004 21.7084 64.1335 23.6398 64.3924 24.7038C64.7926 25.9992 65.5223 26.7856 66.5815 27.0632L66.5462 27.4449L64.6043 27.4102C63.1449 27.3639 62.0621 27.3408 61.3559 27.3408C60.2261 27.3408 59.0256 27.3639 57.7545 27.4102L56.7659 27.4449L56.7306 27.0632Z" fill="white"/>
<path d="M71.453 19.1177C71.453 20.4131 71.6648 21.5233 72.0885 22.4486C72.5122 23.3507 73.1007 24.033 73.8539 24.4957C74.6071 24.9583 75.4781 25.1896 76.4667 25.1896C77.3612 25.1896 78.185 24.9814 78.9383 24.5651C79.715 24.1487 80.4565 23.5589 81.1627 22.7955L81.5511 23.0731C80.7037 24.3453 79.668 25.444 78.444 26.3693C77.2199 27.2945 75.7959 27.7571 74.1717 27.7571C72.2415 27.7571 70.6291 27.3176 69.3345 26.4387C68.2752 25.7447 67.4514 24.8195 66.8629 23.6629C66.298 22.4833 66.0155 21.0723 66.0155 19.43C66.0155 17.9959 66.3568 16.6543 67.0394 15.4052C67.7221 14.1561 68.6754 13.1499 69.8994 12.3866C71.1469 11.6233 72.5357 11.2416 74.0658 11.2416C75.4075 11.2416 76.5609 11.5308 77.5259 12.109C78.5146 12.6873 79.3031 13.4506 79.8916 14.399C80.5036 15.3242 80.9273 16.3189 81.1627 17.3829C81.2333 17.5911 81.2686 17.7877 81.2686 17.9727C81.2686 18.1115 81.2098 18.2387 81.0921 18.3544L71.453 18.5626V19.1177ZM73.8539 11.9703C73.1477 12.3404 72.5946 13.0227 72.1944 14.0173C71.7943 15.012 71.5589 16.2957 71.4883 17.8686C73.8892 17.7993 75.4898 17.7067 76.2902 17.5911C76.2431 16.1338 75.9959 14.8616 75.5487 13.7745C75.125 12.6642 74.5601 12.0628 73.8539 11.9703Z" fill="white"/>
<path d="M89.451 27.9306C88.7448 26.2883 87.7562 24.1256 86.4851 21.4424C85.8025 20.1008 85.1434 18.8401 84.5079 17.6605C83.8958 16.4577 83.3662 15.4862 82.919 14.746C82.7307 14.4221 82.4835 14.0867 82.1775 13.7398C81.8951 13.3928 81.6126 13.1037 81.3301 12.8724C80.8358 12.4329 80.3415 12.1322 79.8472 11.9703L79.9178 11.6233C81.1418 11.6696 82.7542 11.6927 84.755 11.6927C86.4498 11.6927 88.3211 11.658 90.369 11.5886L90.4043 11.9703C89.7688 12.1784 89.298 12.4329 88.992 12.7336C88.5918 13.0805 88.3917 13.5663 88.3917 14.1908C88.3917 14.4221 88.4388 14.6997 88.533 15.0235C88.6271 15.3242 88.7331 15.6365 88.8508 15.9603C89.1568 16.7699 89.7923 18.1925 90.7574 20.228C91.3929 21.4539 91.8284 22.4139 92.0638 23.1078C92.77 21.7431 93.3231 20.3784 93.7233 19.0136C94.147 17.6258 94.3588 16.4114 94.3588 15.3705C94.3588 14.931 94.2882 14.5031 94.147 14.0867C94.0293 13.6704 93.841 13.3119 93.5821 13.0112C93.1584 12.5254 92.6052 12.1784 91.9226 11.9703L91.9579 11.5886C92.2639 11.5886 92.7935 11.6117 93.5467 11.658C94.912 11.7043 95.8888 11.7274 96.4773 11.7274C97.1129 11.7274 98.0426 11.7043 99.2667 11.658L100.714 11.6233L100.75 12.005C100.114 12.2825 99.3844 12.8608 98.5605 13.7398C98.0191 14.318 97.4659 15.0582 96.901 15.9603C96.3361 16.8393 95.7358 17.8802 95.1003 19.083L92.77 23.4895C91.6872 25.6638 90.7692 27.1673 90.0159 28L89.451 27.9306Z" fill="white"/>
<path d="M104.731 19.1177C104.731 20.4131 104.943 21.5233 105.366 22.4486C105.79 23.3507 106.379 24.033 107.132 24.4957C107.885 24.9583 108.756 25.1896 109.745 25.1896C110.639 25.1896 111.463 24.9814 112.216 24.5651C112.993 24.1487 113.734 23.5589 114.441 22.7955L114.829 23.0731C113.982 24.3453 112.946 25.444 111.722 26.3693C110.498 27.2945 109.074 27.7571 107.45 27.7571C105.519 27.7571 103.907 27.3176 102.612 26.4387C101.553 25.7447 100.729 24.8195 100.141 23.6629C99.5759 22.4833 99.2934 21.0723 99.2934 19.43C99.2934 17.9959 99.6347 16.6543 100.317 15.4052C101 14.1561 101.953 13.1499 103.177 12.3866C104.425 11.6233 105.814 11.2416 107.344 11.2416C108.685 11.2416 109.839 11.5308 110.804 12.109C111.792 12.6873 112.581 13.4506 113.17 14.399C113.782 15.3242 114.205 16.3189 114.441 17.3829C114.511 17.5911 114.547 17.7877 114.547 17.9727C114.547 18.1115 114.488 18.2387 114.37 18.3544L104.731 18.5626V19.1177ZM107.132 11.9703C106.426 12.3404 105.873 13.0227 105.472 14.0173C105.072 15.012 104.837 16.2957 104.766 17.8686C107.167 17.7993 108.768 17.7067 109.568 17.5911C109.521 16.1338 109.274 14.8616 108.827 13.7745C108.403 12.6642 107.838 12.0628 107.132 11.9703Z" fill="white"/>
<path d="M114.149 27.0632C114.596 26.9013 114.949 26.7162 115.208 26.5081C115.491 26.2999 115.714 26.0107 115.879 25.6406C116.067 25.2474 116.197 24.8426 116.268 24.4263C116.362 24.0099 116.432 23.5473 116.479 23.0384C116.526 21.9744 116.55 20.9219 116.55 19.881V14.9195C116.55 12.9071 116.515 11.2069 116.444 9.81908C116.397 8.36183 116.326 7.20529 116.232 6.34944C116.162 5.4936 116.032 4.8575 115.844 4.44114C115.679 4.16357 115.455 3.94382 115.173 3.78191C114.891 3.59686 114.596 3.50434 114.29 3.50434C114.149 3.50434 113.961 3.52747 113.725 3.57373L113.584 3.15737L114.643 2.74102C114.832 2.67162 115.291 2.49814 116.02 2.22057C116.75 1.91987 117.362 1.63073 117.856 1.35316C118.398 1.02933 118.986 0.728624 119.622 0.451054C120.257 0.150351 120.693 0 120.928 0L121.317 0.242874C121.434 0.913672 121.493 1.81578 121.493 2.94919C121.493 4.54523 121.481 6.01404 121.458 7.35564L121.423 18.9095C121.423 21.7084 121.552 23.6398 121.811 24.7038C122.211 25.9992 122.941 26.7856 124 27.0632L123.965 27.4449L122.023 27.4102C120.563 27.3639 119.481 27.3408 118.774 27.3408C117.645 27.3408 116.444 27.3639 115.173 27.4102L114.184 27.4449L114.149 27.0632Z" fill="white"/>
<path fill-rule="evenodd" clip-rule="evenodd" d="M0 25.1275C0 23.8668 1.05962 22.8448 2.36673 22.8448H22.7206C24.0277 22.8448 25.0874 23.8668 25.0874 25.1275C25.0874 26.3882 24.0277 27.4102 22.7206 27.4102H2.36673C1.05962 27.4102 0 26.3882 0 25.1275Z" fill="white"/>
<path d="M5.11039 10.975C7.93278 10.975 10.2208 13.2234 10.2208 15.9969C10.2208 18.7704 7.93278 21.0187 5.11039 21.0187C2.288 21.0187 0 18.7704 0 15.9969C0 13.2234 2.288 10.975 5.11039 10.975Z" fill="white"/>
</svg>
